<svg xmlns="http://www.w3.org/2000/svg" xmlns:xlink="http://www.w3.org/1999/xlink" width="535" height="75" viewBox="0 0 535 75"><defs><style>.a{fill:#2c8db8;}.a,.b{stroke:#2a88b0;stroke-width:2px;}.b,.g{fill:none;}.c,.e{fill:#fff;}.c{font-size:18px;font-family:Arimo-Bold, Arimo;font-weight:700;}.d{fill:#40a0ab;}.e{fill-rule:evenodd;}.f{stroke:none;}.h{filter:url(#c);}.i{filter:url(#a);}</style><filter id="a" x="270" y="0" width="265" height="75" filterUnits="userSpaceOnUse"><feOffset dy="3" input="SourceAlpha"/><feGaussianBlur stdDeviation="3" result="b"/><feFlood flood-opacity="0.161"/><feComposite operator="in" in2="b"/><feComposite in="SourceGraphic"/></filter><filter id="c" x="0" y="0" width="265" height="74" filterUnits="userSpaceOnUse"><feOffset dy="3" input="SourceAlpha"/><feGaussianBlur stdDeviation="3" result="d"/><feFlood flood-opacity="0.161"/><feComposite operator="in" in2="d"/><feComposite in="SourceGraphic"/></filter></defs><g transform="translate(-368 -2914.941)"><g class="i" transform="matrix(1, 0, 0, 1, 368, 2914.94)"><g class="a" transform="translate(279 6)"><rect class="f" width="247" height="57"/><rect class="g" x="1" y="1" width="245" height="55"/></g></g><g class="h" transform="matrix(1, 0, 0, 1, 368, 2914.94)"><g class="b" transform="translate(9 6)"><rect class="f" width="247" height="56"/><rect class="g" x="1" y="1" width="245" height="54"/></g></g><text class="c" transform="translate(682 2955.941)"><tspan x="0" y="0">Open Demo Account</tspan></text><text class="c" transform="translate(395 2954.941)"><tspan x="0" y="0">Open Live Account</tspan></text><path class="d" d="M397.979,498.833,374.867,554h56.4V498Z" transform="translate(193.067 2422.941)"/><path class="e" d="M3.441,19.187,14.828,7.8v6.319h3.983V0H5.005l.146,4.359h6.215L0,15.725Z" transform="translate(600.457 2936.941) rotate(45)"/></g></svg>