<svg xmlns="http://www.w3.org/2000/svg" width="52" height="61.177" viewBox="0 0 52 61.177"><defs><style>.a{fill:#2c87ac;}</style></defs><path class="a" d="M72.047,0H55.224a7.647,7.647,0,0,0-7.647,7.647V9.176H46.047A7.647,7.647,0,0,0,38.4,16.824V53.529a7.647,7.647,0,0,0,7.647,7.647H73.576a7.647,7.647,0,0,0,7.647-7.647V52h1.529A7.647,7.647,0,0,0,90.4,44.353v-26ZM84.508,16.824H78.165a4.593,4.593,0,0,1-4.588-4.588V5.864ZM78.165,53.529a4.593,4.593,0,0,1-4.588,4.588H46.047a4.593,4.593,0,0,1-4.588-4.588V16.824a4.593,4.593,0,0,1,4.588-4.588h1.529V44.353A7.647,7.647,0,0,0,55.224,52H78.165Zm9.176-9.176a4.593,4.593,0,0,1-4.588,4.588H55.224a4.593,4.593,0,0,1-4.588-4.588V7.647a4.593,4.593,0,0,1,4.588-4.588H70.518v9.176a7.647,7.647,0,0,0,7.647,7.647h9.176ZM59.812,26a1.529,1.529,0,0,1,1.529-1.529h9.176a1.529,1.529,0,1,1,0,3.059H61.341A1.529,1.529,0,0,1,59.812,26Zm18.353,6.118a1.529,1.529,0,0,1-1.529,1.529H61.341a1.529,1.529,0,1,1,0-3.059H76.635a1.529,1.529,0,0,1,1.529,1.529Zm-.045,6.118a1.529,1.529,0,0,1-1.532,1.529H61.341a1.529,1.529,0,0,1,0-3.059H76.588a1.529,1.529,0,0,1,1.532,1.529Z" transform="translate(-38.4)"/></svg>