<svg xmlns="http://www.w3.org/2000/svg" width="57.527" height="57.093" viewBox="0 0 57.527 57.093"><defs><style>.a{fill:#2f90b6;stroke:#2f90b6;}</style></defs><g transform="translate(-3.581 -5.098)"><path class="a" d="M31.689,40.971v-4.22c3.109-.365,5.511-2.588,5.511-5.275S34.8,26.57,31.689,26.2V19.13c2.119.321,3.723,1.757,3.723,3.477a.894.894,0,1,0,1.788,0c0-2.687-2.4-4.911-5.511-5.274V13.111a.894.894,0,0,0-1.788,0v4.222c-3.112.364-5.517,2.587-5.517,5.275s2.4,4.906,5.517,5.269v7.079c-2.122-.319-3.729-1.757-3.729-3.479a.894.894,0,1,0-1.788,0c0,2.69,2.4,4.914,5.517,5.277v4.219a.894.894,0,1,0,1.788,0Zm3.723-9.5c0,1.72-1.6,3.156-3.723,3.478V28C33.809,28.324,35.413,29.759,35.413,31.476Zm-9.24-8.87c0-1.72,1.606-3.157,3.729-3.477v6.948C27.779,25.758,26.173,24.324,26.173,22.607Z" transform="translate(-7.813 -2.547)"/><path class="a" d="M41.875,24.493a18.9,18.9,0,1,0-18.9,18.9A18.917,18.917,0,0,0,41.875,24.493Zm-36.006,0A17.109,17.109,0,1,1,22.978,41.6,17.127,17.127,0,0,1,5.869,24.493Z"/><path class="a" d="M65.3,59.345,63.42,52.038a.9.9,0,0,0-1.085-.644l-7.256,1.838a.894.894,0,1,0,.439,1.733l5.188-1.313L51.27,68.333l-6.09-8.878a.928.928,0,0,0-.776-.388.9.9,0,0,0-.739.453l-8.188,14.5-8.651-6.33a.9.9,0,0,0-1.192.124l-8.994,10a.894.894,0,0,0,1.329,1.2l8.454-9.4,8.81,6.447a.895.895,0,0,0,1.306-.282L44.516,61.65l6.041,8.806a.885.885,0,0,0,.751.388.9.9,0,0,0,.739-.411L62.229,54.588l1.336,5.2a.894.894,0,1,0,1.731-.445Z" transform="translate(-4.744 -17.611)"/></g></svg>