<svg xmlns="http://www.w3.org/2000/svg" width="55.647" height="55.647" viewBox="0 0 55.647 55.647"><defs><style>.a{fill:#2f90b6;}</style></defs><path class="a" d="M10.5,28.876l-1.238-.5,1.192-1.224V25.377l1.238.5L10.5,27.1Z" transform="translate(-1.693 19.551)"/><path class="a" d="M48.646,34.374H45.168V30.015c0-7.839-6.012-17.413-13.031-17.413a1.735,1.735,0,0,1-.248-.019c-6.909.246-12.78,9.694-12.78,17.431v.3H15.631v-.3c0-9.451,7.362-20.888,16.5-20.914a1.348,1.348,0,0,1,.308.028c9.149.241,16.2,11.331,16.2,20.886v4.359Z" transform="translate(6.7 -1.913)"/><path class="a" d="M24.8,16.285l-5.43-4.345A3.336,3.336,0,0,1,21.444,6H36.3a3.337,3.337,0,0,1,2.073,5.945l-5.426,4.343-2.175-2.72,5.113-4.09H21.855l5.115,4.092Z" transform="translate(9.966 -6)"/><path class="a" d="M19.133,9.1H35.9v3.478H19.133Z" transform="translate(11.317 -1.912)"/><path class="a" d="M14.115,41.186H7.739A1.74,1.74,0,0,1,6,39.447V19.739A1.74,1.74,0,0,1,7.739,18c8.127,0,11.913,2.822,12.071,2.942a1.742,1.742,0,0,1,.624,1.836L15.8,39.9a1.745,1.745,0,0,1-1.681,1.282ZM9.478,37.708h3.306l3.937-14.54a19.714,19.714,0,0,0-7.246-1.639V37.708Z" transform="translate(-6 9.824)"/><path class="a" d="M31.58,38.9c-5.588,0-16.256-4.637-22.12-7.4l1.484-3.146c9.527,4.493,17.049,7.069,20.636,7.069,4.7,0,15.377-5.078,20.97-8.009a5.946,5.946,0,0,0-3-.686,24.571,24.571,0,0,0-6.986,1.651,26.9,26.9,0,0,1-8.085,1.827c-4.888,0-11.336-2.326-11.607-2.423l1.187-3.269c.06.023,6.149,2.214,10.42,2.214a24.571,24.571,0,0,0,6.986-1.651,26.9,26.9,0,0,1,8.085-1.827c5.748,0,7.345,3.828,7.41,3.993a1.735,1.735,0,0,1-.774,2.168C55.482,29.8,38.9,38.9,31.58,38.9Z" transform="translate(-1.438 16.748)"/><path class="a" d="M39.246,31.836H35.768V30.793a2.906,2.906,0,0,0-2.319-2.84L11.119,23.38l.7-3.406,22.328,4.57a6.394,6.394,0,0,1,5.1,6.246v1.046Z" transform="translate(0.75 12.427)"/></svg>