<svg xmlns="http://www.w3.org/2000/svg" width="92.448" height="15.408" viewBox="0 0 92.448 15.408"><defs><style>.a{fill:#3b99b3;}</style></defs><g transform="translate(-703.552 -1101)"><path class="a" d="M7.7,0,9.63,5.73l5.778.155-4.588,3.7,1.645,5.826L7.7,11.963,2.943,15.408,4.588,9.582,0,5.885,5.778,5.73Z" transform="translate(703.552 1101)"/><path class="a" d="M7.7,0,9.63,5.73l5.778.155-4.588,3.7,1.645,5.826L7.7,11.963,2.943,15.408,4.588,9.582,0,5.885,5.778,5.73Z" transform="translate(722.812 1101)"/><path class="a" d="M7.7,0,9.63,5.73l5.778.155-4.588,3.7,1.645,5.826L7.7,11.963,2.943,15.408,4.588,9.582,0,5.885,5.778,5.73Z" transform="translate(742.071 1101)"/><path class="a" d="M7.7,0,9.63,5.73l5.778.155-4.588,3.7,1.645,5.826L7.7,11.963,2.943,15.408,4.588,9.582,0,5.885,5.778,5.73Z" transform="translate(761.331 1101)"/><path class="a" d="M7.7,0,9.63,5.73l5.778.155-4.588,3.7,1.645,5.826L7.7,11.963,2.943,15.408,4.588,9.582,0,5.885,5.778,5.73Z" transform="translate(780.592 1101)"/></g></svg>