<svg xmlns="http://www.w3.org/2000/svg" width="45" height="22" viewBox="0 0 45 22"><defs><style>.a,.d{fill:none;}.a,.b{stroke:#41a0ab;stroke-width:2px;}.a{stroke-linecap:round;stroke-linejoin:round;}.b{fill:#fff;}.c{stroke:none;}</style></defs><g transform="translate(-80 -199)"><g transform="translate(3 -68)"><path class="a" d="M-3178,455.086c-.171-.457,4.057-15.2,4.057-15.2l7.086,18.057,6.629-12.571s6.971,11.886,7.086,11.429,8-17.6,8-17.6l6.171,12.571" transform="translate(3258 -170)"/><g class="b" transform="translate(77 283)"><circle class="c" cx="2.5" cy="2.5" r="2.5"/><circle class="d" cx="2.5" cy="2.5" r="1.5"/></g><g class="b" transform="translate(103 284)"><circle class="c" cx="2.5" cy="2.5" r="2.5"/><circle class="d" cx="2.5" cy="2.5" r="1.5"/></g><g class="b" transform="translate(82 269)"><circle class="c" cx="2.5" cy="2.5" r="2.5"/><circle class="d" cx="2.5" cy="2.5" r="1.5"/></g><g class="b" transform="translate(95 274)"><circle class="c" cx="2.5" cy="2.5" r="2.5"/><circle class="d" cx="2.5" cy="2.5" r="1.5"/></g><g class="b" transform="translate(110 267)"><circle class="c" cx="2.5" cy="2.5" r="2.5"/><circle class="d" cx="2.5" cy="2.5" r="1.5"/></g><g class="b" transform="translate(117 279)"><circle class="c" cx="2.5" cy="2.5" r="2.5"/><circle class="d" cx="2.5" cy="2.5" r="1.5"/></g></g></g></svg>