<svg xmlns="http://www.w3.org/2000/svg" xmlns:xlink="http://www.w3.org/1999/xlink" width="245" height="116" viewBox="0 0 245 116"><defs><style>.a{fill:#eafaff;opacity:0.46;}.b,.c{opacity:0.31;}.b{fill:url(#a);}.c,.e{fill:none;}.c{stroke:#31ae7e;}.d{opacity:0.16;}.e{stroke:#40a0ab;stroke-width:0.5px;opacity:0.51;}.f,.g{fill:#fff;font-family:Arimo-Medium, Arimo;font-weight:500;}.f{font-size:3px;}.g{font-size:4px;}</style><linearGradient id="a" x1="0.462" y1="0.173" x2="0.5" y2="1" gradientUnits="objectBoundingBox"><stop offset="0" stop-color="#34bf8b"/><stop offset="1" stop-color="#3bbf88" stop-opacity="0"/></linearGradient></defs><g transform="translate(-702 -1134)"><rect class="a" width="245" height="116" transform="translate(702 1134)"/><path class="b" d="M-1104,394.952l9.426,10.627,3.427-15.729,8.569,8.5,14.138-20.83,11.568,20.83,29.562-34.008,24.849,34.008,19.28-34.008,6-24.656,21.85,31.882,17.994,23.38,6.855-40.384,17.137-24.23,14.567-7.652,13.281,21.68V409.83H-1104Z" transform="translate(1815.813 829.549)"/><path class="c" d="M0,2.454,9.512,13.013,13.061-2.329,21.419,5.8,35.387-14.922,47.294,5.8,76.6-28.318,101.677,5.8l19.005-33.546L126.865-52.7l21.181,30.8,18.662,24.5,6.64-40.415,17.288-24.272,14.655-7.442,13.274,21.527" transform="translate(711.816 1222.166)"/><g class="d" transform="translate(711.816 1147.563)"><line class="e" x2="219.184" transform="translate(0 3.067)"/><line class="e" x2="219.184" transform="translate(0 42.694)"/><line class="e" x2="219.184" transform="translate(0 82.32)"/><line class="e" x2="219.184" transform="translate(0 12.974)"/><line class="e" x2="219.184" transform="translate(0 52.6)"/><line class="e" x2="219.184" transform="translate(0 92.227)"/><line class="e" x2="219.184" transform="translate(0 22.88)"/><line class="e" x2="219.184" transform="translate(0 62.507)"/><line class="e" x2="219.184" transform="translate(0 32.787)"/><line class="e" x2="219.184" transform="translate(0 72.413)"/><text class="f" transform="translate(15.183 96.438)"><tspan x="0" y="0">100</tspan></text><text class="f" transform="translate(54.183 96.438)"><tspan x="0" y="0">200</tspan></text><text class="f" transform="translate(90.183 96.438)"><tspan x="0" y="0">300</tspan></text><text class="f" transform="translate(128.183 96.438)"><tspan x="0" y="0">400</tspan></text><text class="f" transform="translate(163.183 96.438)"><tspan x="0" y="0">500</tspan></text><text class="f" transform="translate(202.183 96.438)"><tspan x="0" y="0">600</tspan></text><text class="f" transform="translate(221.183 3.438)"><tspan x="0" y="0">100</tspan></text><text class="f" transform="translate(221.183 13.438)"><tspan x="0" y="0">200</tspan></text><text class="f" transform="translate(221.183 24.438)"><tspan x="0" y="0">300</tspan></text><text class="f" transform="translate(221.183 32.438)"><tspan x="0" y="0">400</tspan></text><text class="f" transform="translate(221.183 44.438)"><tspan x="0" y="0">500</tspan></text><text class="f" transform="translate(221.183 53.438)"><tspan x="0" y="0">600</tspan></text><text class="f" transform="translate(221.183 63.437)"><tspan x="0" y="0">700</tspan></text><text class="f" transform="translate(221.183 73.438)"><tspan x="0" y="0">800</tspan></text><text class="f" transform="translate(221.183 83.438)"><tspan x="0" y="0">900</tspan></text><text class="g" transform="translate(221.183 93.438)"><tspan x="0" y="0">1000</tspan></text></g></g></svg>