<svg xmlns="http://www.w3.org/2000/svg" width="42.266" height="42.266" viewBox="0 0 42.266 42.266"><defs><style>.a{fill:#fff;}</style></defs><g transform="translate(0)"><g transform="translate(0 0)"><g transform="translate(0 0)"><path class="a" d="M38.677,25.308a1.651,1.651,0,0,0-3.061,1.238l1.944,4.81-5.775-2.546a1.651,1.651,0,0,0-1.314-.008,15.919,15.919,0,0,1-6.284,1.269c-8.839,0-14.776-6.921-14.776-13.384C9.411,9.306,16.04,3.3,24.188,3.3s14.776,6,14.776,13.384a13.464,13.464,0,0,1-.147,1.891,1.651,1.651,0,1,0,3.266.487,16.66,16.66,0,0,0,.183-2.379A15.957,15.957,0,0,0,36.918,4.837,18.763,18.763,0,0,0,24.188,0,18.763,18.763,0,0,0,11.457,4.837,16.046,16.046,0,0,0,6.174,15.266,13.346,13.346,0,0,0,0,26.377a12.809,12.809,0,0,0,2.532,7.654L.121,40a1.651,1.651,0,0,0,2.2,2.13L9.27,39.06a15.713,15.713,0,0,0,5.506.981c.041,0,.082,0,.122-.006a15.627,15.627,0,0,0,7.768-2.106,14.213,14.213,0,0,0,4.995-4.864,19,19,0,0,0,3.43-.954l8.858,3.9a1.651,1.651,0,0,0,2.2-2.13Zm-23.9,11.427c-.023,0-.044,0-.067,0a12.382,12.382,0,0,1-4.824-.986,1.65,1.65,0,0,0-1.314.008l-3.866,1.7,1.247-3.085a1.651,1.651,0,0,0-.274-1.69A9.637,9.637,0,0,1,3.3,26.377a9.823,9.823,0,0,1,3.052-7.034,16.666,16.666,0,0,0,4.884,8.925A18.455,18.455,0,0,0,23.25,33.35,12.134,12.134,0,0,1,14.777,36.735Z" transform="translate(0 0)"/><ellipse class="a" cx="2" cy="1.5" rx="2" ry="1.5" transform="translate(22.132 15.132)"/><circle class="a" cx="1.5" cy="1.5" r="1.5" transform="translate(29.132 15.132)"/><circle class="a" cx="1.5" cy="1.5" r="1.5" transform="translate(16.132 15.132)"/></g></g></g></svg>